<svg width="600" height="400" viewBox="0 0 600 400" xmlns="http://www.w3.org/2000/svg">
  <rect width="600" height="400" fill="#0057B8" />
  <g transform="translate(70, 70) scale(1.8)">
    <g stroke="white" stroke-width="1.2" fill="none">
      <polygon points="0,-30 30,0 0,30 -30,0" />
      <line x1="-30" y1="0" x2="30" y2="0" />
      <line x1="0" y1="-30" x2="0" y2="30" />
      <rect x="-15" y="-15" width="30" height="30" />
      <line x1="-15" y1="-15" x2="15" y2="15" />
      <line x1="-15" y1="15" x2="15" y2="-15" />
      <rect x="-10" y="-10" width="20" height="20" />
      <line x1="10" y1="10" x2="0" y2="30" />
      <line x1="10" y1="10" x2="30" y2="0" />
      <line x1="-10" y1="10" x2="0" y2="30" />
      <line x1="-10" y1="10" x2="-30" y2="0" />
      <line x1="-10" y1="-10" x2="0" y2="-30" />
      <line x1="-10" y1="-10" x2="-30" y2="0" />
      <line x1="10" y1="-10" x2="0" y2="-30" />
      <line x1="10" y1="-10" x2="30" y2="0" />
      <line x1="0" y1="10" x2="-15" y2="15" />
      <line x1="0" y1="10" x2="15" y2="15" />
      <line x1="10" y1="0" x2="15" y2="15" />
      <line x1="10" y1="0" x2="15" y2="-15" />
      <line x1="0" y1="-10" x2="15" y2="-15" />
      <line x1="0" y1="-10" x2="-15" y2="-15" />
      <line x1="-10" y1="0" x2="-15" y2="15" />
      <line x1="-10" y1="0" x2="-15" y2="-15" />
    </g>
  </g>
</svg>
